<?xml version='1.0' encoding='utf-8'?>
<svg xmlns="http://www.w3.org/2000/svg" version="1.1" width="157px" height="113px" viewBox="451 997 157 113"> <g id="layer1"> <g style="fill:rgb(118,184,188); fill-opacity:1.0; stroke-linejoin: miter"> <path d="M450.999,996.9356L450.93558,996.999L450.93658,1110.0L451.0,1110.0635L608.001,1110.0645L608.0644,1110.001L608.0634,997.0L608.0,996.9366L450.999,996.9356 Z"/> </g> <g> <g style="fill:rgb(104,60,22); fill-opacity:1.0; stroke-linejoin: miter"> <path d="M493.94208,1063.2362L571.5667,1063.2362L571.5667,1023.8998L493.94208,1023.8998 Z M574.73737,1066.407L490.78418,1066.407L490.78418,1020.72925L574.7246,1020.7289L574.7246,1066.407 Z"/> </g> <g style="fill:rgb(0,0,0); fill-opacity:1.0; stroke-linejoin: miter"> <path d="M493.94208,1063.2362L493.94208,1063.2362L571.5667,1063.2362L571.5667,1063.2362L571.5667,1023.8998L571.5667,1023.8998L493.94208,1023.8998L493.94208,1023.8998L493.94208,1063.2362L493.94208,1063.2362 M493.94208,1063.2362L493.94208,1063.2362L493.94208,1023.8998L493.94208,1023.8998L571.5667,1023.8998L571.5667,1023.8998L571.5667,1063.2362L571.5667,1063.2362L493.94208,1063.2362 Z M574.73737,1066.407L574.73737,1066.407L490.78418,1066.407L490.78418,1066.407L490.78418,1020.72925L490.78418,1020.72925L574.7246,1020.7289L574.7246,1020.7289L574.7246,1066.407L574.7246,1066.407L574.73737,1066.407L574.73737,1066.407 M574.73737,1066.407L574.73737,1066.407L574.7246,1066.407L574.7246,1066.407L574.7246,1020.7289L574.7246,1020.7289L490.78418,1020.72925L490.78418,1020.72925L490.78418,1066.407L490.78418,1066.407L574.73737,1066.407 Z"/> </g> </g> <g style="fill:url(#grad0); fill-opacity:1.0; stroke-linejoin: miter"> <path d="M492.23804,1022.45703L573.306,1022.45703L573.306,1064.6891L492.23804,1064.6885 Z"/> </g> <g> <g style="fill:rgb(249,249,250); fill-opacity:1.0; stroke-linejoin: miter"> <path d="M555.65027,1063.4224L561.941,1063.4224L561.941,1064.673L555.65027,1064.673 Z"/> </g> <g style="fill:rgb(0,0,0); fill-opacity:1.0; stroke-linejoin: miter"> <path d="M555.65027,1063.4224L555.65027,1063.4224L561.941,1063.4224L561.941,1063.4224L561.941,1064.673L561.941,1064.673L555.65027,1064.673L555.65027,1064.673L555.65027,1063.4224L555.65027,1063.4224 M555.65027,1063.4224L555.65027,1063.4224L555.65027,1064.673L555.65027,1064.673L561.941,1064.673L561.941,1064.673L561.941,1063.4224L561.941,1063.4224L555.65027,1063.4224 Z"/> </g> </g> <g style="fill:rgb(146,159,168); fill-opacity:1.0; stroke-linejoin: miter"> <path d="M511.094,1047.0938L511.094,1047.0938L511.094,1047.094L511.094,1047.0938L511.094,1047.0938L511.094,1047.0938L511.094,1047.0938Q511.094,1047.0938,511.094,1047.0938 Z"/> </g> <g style="fill:rgb(0,0,0); fill-opacity:1.0; stroke-linejoin: miter"> <path d="M495.38684,1093.4702L497.98395,1096.6365Q498.4812,1097.1006,498.94318,1097.3606Q499.0868,1097.4753,500.44513,1098.0474Q500.71356,1098.1769,500.85864,1098.2858Q501.25427,1098.5665,500.95374,1098.8611Q500.51257,1099.2449,499.62286,1099.326Q498.7965,1099.3896,497.99817,1099.095Q496.66815,1098.661,493.9115,1096.2797Q494.3849,1094.9314,494.664,1094.4086Q494.9287,1093.8914,495.3866,1093.4702"/> </g> <g style="fill:rgb(0,0,0); fill-opacity:1.0; stroke-linejoin: miter"> <path d="M502.06952,1096.9438L504.5475,1097.6346L505.69037,1097.7772Q506.6139,1097.6074,506.99286,1097.5814Q507.47345,1097.5431,507.75507,1097.6086Q508.44745,1097.8093,508.25806,1098.3402Q508.02832,1098.9191,506.1015,1099.2418Q504.91876,1099.4392,503.63086,1099.4994Q502.70856,1099.543,501.96613,1099.41Q501.5722,1098.7477,501.60327,1098.2947Q501.60547,1097.8726,502.0694,1096.9445"/> </g> <g style="fill:rgb(255,205,145); fill-opacity:1.0; stroke-linejoin: miter"> <path d="M504.6194,1094.9017Q504.948,1096.3025,505.36505,1096.811Q505.54517,1097.0494,505.80908,1097.2335Q505.9521,1097.3344,506.1269,1097.4304L506.7744,1097.7654Q506.91577,1097.8513,506.92487,1097.912Q506.948,1098.0432,506.5298,1098.1682Q506.10565,1098.2885,505.487,1098.3254Q504.2975,1098.3866,503.13696,1098.0768Q502.1043,1097.7848,502.01483,1097.349Q501.97504,1097.1849,502.03064,1096.9819Q502.03558,1096.8977,502.3473,1096.2119Q502.39948,1096.079,502.445,1095.9302Q502.56866,1095.528,502.63123,1095.0133L504.6181,1094.9017"/> </g> <g style="fill:rgb(255,205,145); fill-opacity:1.0; stroke-linejoin: miter"> <path d="M496.6969,1091.3672L499.17596,1092.2129Q498.00043,1094.4541,498.05164,1095.389Q498.05237,1095.8533,498.27576,1096.2977Q498.38794,1096.5248,498.56433,1096.7698L499.1515,1097.5128Q499.2417,1097.6488,499.2019,1097.7124Q499.06097,1097.8699,498.44696,1097.615Q497.87463,1097.3647,497.2693,1096.8754Q496.55756,1096.2998,495.86133,1095.5266Q495.1723,1094.7512,495.00848,1094.3483Q494.89777,1094.0759,495.0185,1093.8806L495.11676,1093.7433Q495.42053,1093.4086,495.47986,1093.3264Q495.6095,1093.1604,495.75153,1092.9478Q496.05768,1092.4958,496.6938,1091.3727"/> </g> <g style="fill:rgb(0,0,0); fill-opacity:1.0; stroke-linejoin: miter"> <path d="M506.7517,1036.5581Q507.84778,1036.5513,510.03357,1037.9636L508.30487,1046.6265Q507.19464,1047.7108,506.88983,1048.6058Q506.74,1048.9937,506.6504,1049.54Q506.3495,1052.455,506.19922,1052.7936Q505.9674,1053.7205,505.2655,1054.8096L502.84686,1058.4215Q502.3817,1059.0865,502.07404,1059.3704Q501.56018,1060.0426,499.7979,1059.9297Q498.0246,1059.9352,498.13037,1058.2068Q498.1678,1057.8605,498.32465,1057.5406L499.13165,1056.4513Q499.31134,1056.1454,499.45093,1055.5468Q499.5844,1054.9329,499.58508,1054.4913Q499.58203,1054.3262,499.5592,1054.2694Q499.45142,1054.0928,499.44653,1053.9913Q499.4297,1053.9021,499.44403,1053.638Q499.47888,1053.1287,499.65338,1052.1301Q501.10986,1044.4175,501.9204,1041.2621Q502.27856,1039.8677,503.3772,1038.866Q505.58228,1036.8335,505.51123,1036.9813Q506.11176,1036.5579,506.75098,1036.5581"/> </g> <g style="fill:rgb(0,0,0); fill-opacity:1.0; stroke-linejoin: miter"> <path d="M499.87213,1063.2382L504.27985,1064.4094L506.23126,1063.696L508.16278,1064.2708L508.47833,1063.6979L509.07782,1065.2417C509.1679,1064.2397,509.28436,1064.0869,509.43378,1064.782C509.53918,1065.2709,509.5937,1065.6788,509.5728,1066.006C509.55658,1066.2607,509.38538,1066.0112,509.07678,1065.259C509.04907,1065.9078,509.07642,1066.3591,509.1776,1066.6069C509.22974,1066.7338,509.3086,1066.789,509.39502,1066.78L509.89185,1066.627L509.46613,1069.8259C509.055,1073.7816,508.79156,1076.1371,508.69495,1076.895C508.5138,1078.316,508.33447,1079.6475,508.14838,1080.8872C507.69037,1083.9402,506.80658,1088.8093,505.48663,1095.4927L502.10327,1095.1866L502.74188,1085.8921L498.88135,1094.2034L496.28217,1091.369C499.98236,1083.8152,501.34412,1081.405,501.99786,1080.8484C501.5752,1080.3634,502.11884,1079.1118,501.7827,1078.1858C501.6361,1077.7809,500.97223,1075.6715,499.86865,1071.826L499.55078,1070.9226L498.91376,1069.4248C498.7732,1069.0201,498.6927,1068.6505,498.62006,1068.3265C498.3233,1067.0045,498.7171,1065.3245,499.85284,1063.2744 Z"/> </g> <g style="fill:rgb(255,255,255); fill-opacity:1.0; stroke-linejoin: miter"> <path d="M500.2766,1059.8018L504.1015,1059.8658Q503.25226,1061.082,503.096,1061.5951Q502.87567,1062.2252,503.15894,1062.6117Q503.42712,1062.9924,504.33264,1063.288Q505.07666,1063.5425,507.0288,1063.8711Q506.02942,1064.5294,505.37994,1064.7468Q504.672,1064.9957,503.9328,1064.9545Q502.6444,1064.9364,499.3573,1063.438L500.27576,1059.8049"/> </g> <g style="fill:rgb(254,185,154); fill-opacity:1.0; stroke-linejoin: miter"> <path d="M519.24744,1033.5729Q519.6129,1033.5925,519.4349,1033.9381Q519.3611,1034.0618,519.221,1034.214L518.3633,1035.116Q518.1431,1035.3782,518.1095,1035.5627Q518.0827,1035.7017,518.20496,1035.8422L518.8251,1036.2943Q518.9308,1036.3804,518.9707,1036.5184Q519.0419,1036.8147,518.5134,1037.4275Q518.2945,1037.686,517.7933,1038.1923Q517.0841,1038.1521,516.8508,1038.1117Q516.7748,1038.1094,516.7149,1038.1669L513.8181,1041.4015Q512.80084,1042.4865,512.0254,1043.1693Q511.38513,1043.7346,510.8376,1044.0634Q510.5345,1044.2778,509.16302,1044.8812Q508.90704,1045.0145,508.69086,1045.2107Q508.41028,1045.4644,508.1057,1045.9934L507.2063,1047.8026Q507.07483,1048.0266,506.93658,1048.0387Q506.7307,1048.0618,506.50403,1047.2576L507.287,1045.8994Q507.77032,1045.4386,508.06683,1044.9413Q508.36694,1044.449,508.58527,1043.8706Q508.76227,1043.4153,508.94586,1042.6642Q509.5982,1039.6865,510.0277,1037.9631Q510.52032,1038.8287,510.64026,1039.2635Q510.71234,1039.5079,510.7445,1039.7595L510.80872,1040.5461Q514.32263,1038.1285,515.9464,1037.2208Q516.0736,1037.1216,516.1523,1036.974L516.3958,1036.2643Q516.4701,1036.0939,516.62317,1035.9259L517.4909,1035.0886Q518.44885,1033.9384,518.5272,1033.9135Q518.8636,1033.5983,519.2422,1033.5731"/> </g> <g style="fill:rgb(255,255,255); fill-opacity:1.0; stroke-linejoin: miter"> <path d="M506.79034,1047.8856Q507.40656,1047.8352,508.2066,1049.4838Q509.31335,1051.8975,509.50214,1053.433Q509.5728,1054.1074,509.3376,1054.5367Q509.26263,1054.6764,509.10236,1054.8201Q508.17633,1055.4388,508.05878,1055.6489Q507.76477,1056.008,507.68524,1056.572Q507.6062,1057.0851,507.74847,1057.993Q507.76385,1058.2574,508.37512,1061.0754Q508.4898,1061.6777,508.5172,1062.0156Q508.60297,1062.9026,508.21802,1062.9023Q507.9489,1062.9086,507.4192,1062.5702L505.51404,1061.2089L504.8006,1060.7465Q504.20007,1060.3938,503.7815,1060.3062Q503.2757,1060.1896,502.76752,1060.362Q502.4732,1060.4083,501.35242,1061.2477Q501.11865,1061.3716,500.94727,1061.2986Q500.37152,1061.0033,500.19537,1059.6993Q500.1176,1058.9227,500.42023,1058.447Q500.54877,1058.1361,501.54846,1057.4501Q501.66937,1057.3324,501.727,1057.1943Q501.76617,1057.1095,501.79144,1056.9523Q501.8341,1056.1827,501.93884,1055.8369Q502.08636,1055.2711,502.3349,1054.8788Q502.5204,1054.5929,502.73602,1054.5087Q502.8078,1054.4487,503.41174,1054.4028Q503.50598,1054.386,503.59552,1054.3362Q503.7503,1054.2461,503.872,1053.9951Q503.9992,1053.7394,504.12738,1053.2124L504.7544,1050.4138Q505.03192,1049.874,505.19824,1049.5752Q506.1632,1047.8481,506.77234,1047.8859"/> </g> <g style="fill:rgb(254,185,154); fill-opacity:1.0; stroke-linejoin: miter"> <path d="M503.56445,1059.9572Q507.8888,1061.8741,509.36243,1063.4086Q510.79413,1064.9191,510.03308,1066.6818Q509.4261,1067.8258,508.7556,1067.5504Q508.46027,1067.3842,508.36108,1066.9966Q508.3186,1066.8188,508.34326,1066.639Q508.32965,1066.6064,508.52502,1065.9401Q508.557,1065.7844,508.54297,1065.6576Q508.51312,1065.348,508.17188,1065.0918Q507.83075,1064.8292,507.0315,1064.4968Q507.06195,1064.4788,503.99707,1063.3757Q503.26227,1063.0913,502.2854,1062.6448L503.5605,1059.9653"/> </g> <g style="fill:rgb(91,59,48); fill-opacity:0.09411765; stroke-linejoin: miter"> <path d="M506.07416,1051.218L504.85962,1057.7142L504.8908,1060.5487L503.2519,1059.817Q503.68176,1058.9567,503.9146,1058.233Q504.0061,1057.956,504.11243,1057.5737L504.6541,1055.5323Q504.81317,1054.9506,504.9673,1054.4521Q505.29803,1053.365,506.0702,1051.229"/> </g> <g style="fill:rgb(91,59,48); fill-opacity:0.13333334; stroke-linejoin: miter"> <path d="M500.1931,1060.4054Q501.19653,1061.8492,502.06915,1062.492Q502.5,1062.8112,503.05566,1063.0619Q503.4834,1063.2631,504.50812,1063.5952Q504.14203,1064.1565,503.8382,1064.328Q503.49066,1064.5354,503.0321,1064.4829Q502.22717,1064.4352,499.69525,1063.094L500.19293,1060.4065"/> </g> <g style="fill:rgb(136,127,124); fill-opacity:0.3882353; stroke-linejoin: miter"> <path d="M502.38623,1069.7563L503.97638,1080.4661Q503.78174,1090.6577,503.40186,1093.2571Q503.1435,1095.3434,502.60608,1095.408Q502.58832,1095.4135,502.5697,1095.4158Q502.58667,1095.3257,502.60107,1095.2317L502.6012,1095.232L502.14056,1095.19L502.14056,1095.1906Q502.12323,1095.1732,502.10547,1095.1548L502.1054,1095.1554L502.74188,1085.8921L502.74188,1085.8923L502.76843,1089.3646Q502.7696,1086.2227,502.7926,1085.4242Q502.6458,1082.3119,502.77313,1080.4154L502.77313,1080.4154Q502.77313,1080.4154,502.77313,1080.4154L502.77313,1080.4156Q502.7804,1080.3075,502.787,1080.203Q502.79468,1080.0775,502.8012,1079.9562Q502.92334,1077.7567,502.75073,1076.0575Q502.62048,1074.5648,502.04895,1072.3375L502.3849,1069.7661L502.38623,1069.7563L502.38623,1069.7563 Z"/> </g> <g style="fill:rgb(150,44,7); fill-opacity:0.050980393; stroke-linejoin: miter"> <path d="M510.01697,1037.9525Q510.02515,1037.9581,510.03357,1037.9636L510.0321,1037.9707L510.0321,1037.971Q510.5208,1038.8308,510.64026,1039.2635Q510.64172,1039.2688,510.6433,1039.2738L510.6433,1039.2738Q510.65497,1039.3457,510.66193,1039.4187Q510.68964,1039.5515,510.72522,1039.6293L510.72522,1039.6295Q510.73615,1039.6938,510.7445,1039.7595L510.80573,1040.5083L510.80573,1040.5085Q510.79254,1040.527,510.77905,1040.5459L510.77905,1040.5461Q510.78326,1040.7775,510.81146,1041.0009Q510.8313,1041.1968,510.94604,1041.678Q510.96387,1041.7733,510.95062,1041.8258Q510.9442,1041.8696,510.88562,1041.9203Q510.60156,1042.0813,510.58093,1042.1196Q510.5097,1042.1895,510.4765,1042.289Q510.44836,1042.3674,510.44373,1042.5125Q510.47406,1043.3153,510.44427,1043.42Q510.41113,1043.7207,510.27808,1043.9224Q510.15894,1044.1035,509.9184,1044.276L508.9652,1044.8623Q508.80933,1044.9946,508.77277,1045.1398L508.77277,1045.14Q508.73114,1045.1742,508.69086,1045.2107Q508.62677,1045.2687,508.56128,1045.3412L508.56152,1045.3412L508.30487,1046.6265Q507.5547,1047.3593,507.17212,1048.0054L507.17218,1048.0054Q507.39545,1048.1564,507.63904,1048.4952L507.63904,1048.4958Q506.91162,1048.4268,506.38306,1048.0444Q505.85602,1047.6401,506.01904,1047.0426Q506.11273,1046.6678,506.44208,1046.175Q506.68915,1045.7878,507.4903,1044.8287L510.01697,1037.9525 Z"/> </g> <g style="fill:rgb(0,0,0); fill-opacity:0.33333334; stroke-linejoin: miter"> <path d="M587.7025,1098.9802L587.208,1099.0659Q586.4269,1099.123,584.9772,1099.1753Q580.76776,1099.3016,579.1235,1099.3206Q574.21814,1099.41,566.6381,1099.4789Q564.9183,1099.5017,554.51184,1099.5619Q545.9758,1099.6033,536.23535,1099.6083Q523.5855,1099.608,521.36786,1099.5936Q511.93604,1099.5676,504.261,1099.5101Q502.0678,1099.501,493.73663,1099.4072Q470.8301,1099.0911,484.56573,1098.7106Q485.08398,1098.6833,492.03137,1098.5752Q498.31262,1098.4893,506.29327,1098.4352Q518.1998,1098.3546,533.5426,1098.3499Q543.7713,1098.353,552.47266,1098.3898Q563.01514,1098.4431,564.6654,1098.4639Q568.4432,1098.4951,571.83936,1098.5344Q575.23553,1098.5739,577.9055,1098.6182Q579.6943,1098.6373,584.2822,1098.7598Q587.44446,1098.8611,587.7025,1098.9802"/> </g> <g> <g style="fill:rgb(255,255,255); fill-opacity:1.0; stroke-linejoin: miter"> <path d="M549.68274,1028.9904C549.5688,1029.0917,549.51056,1029.1726,549.40424,1029.3752C549.3384,1029.4993,549.2093,1029.7397,549.1181,1029.9069C549.027,1030.074,548.8978,1030.312,548.83203,1030.4386C548.7637,1030.5626,548.67505,1030.7297,548.6345,1030.8058C548.59406,1030.8816,548.51807,1031.0234,548.4649,1031.1222C548.4117,1031.2184,548.232,1031.5526,548.0649,1031.8616C547.89777,1032.1729,547.76605,1032.4261,547.7737,1032.4261C547.7838,1032.4261,547.7712,1032.4464,547.7509,1032.4692C547.718,1032.5071,547.60657,1032.7097,547.3635,1033.168C547.3357,1033.2186,547.30786,1033.2616,547.30023,1033.2616C547.2926,1033.2616,547.07996,1032.849,546.8268,1032.3427C546.5736,1031.8387,546.34827,1031.4032,546.328,1031.3754C546.29254,1031.3274,546.27985,1031.3323,545.9583,1031.5502C545.7254,1031.7045,545.6292,1031.7855,545.6342,1031.8135C545.6469,1031.8793,545.7406,1031.8793,545.8216,1031.8135C545.8621,1031.7805,545.9254,1031.735,545.9634,1031.7096L546.03174,1031.6665L546.33307,1032.2565C546.5002,1032.578,546.7457,1033.0642,546.87994,1033.33C547.09515,1033.7605,547.1306,1033.8187,547.1838,1033.8187C547.27747,1033.8187,547.3357,1033.7504,547.4724,1033.4895C547.5433,1033.3578,547.6952,1033.0718,547.8117,1032.8566C547.92816,1032.6414,548.08765,1032.3451,548.16614,1032.1982C548.2446,1032.0515,548.4092,1031.7426,548.5358,1031.5071C548.66235,1031.2742,548.76117,1031.0842,548.75354,1031.0842C548.7485,1031.0842,548.77374,1031.0438,548.8067,1030.9932C548.8396,1030.945,548.87506,1030.8792,548.8852,1030.8513C548.89276,1030.8209,548.913,1030.7854,548.9257,1030.7704C548.95355,1030.7349,549.07,1030.5247,549.1941,1030.2739C549.24475,1030.1703,549.2979,1030.074,549.308,1030.0588C549.3207,1030.0461,549.36115,1029.9753,549.3966,1029.9044C549.43463,1029.8335,549.5333,1029.6487,549.6169,1029.4941L549.7663,1029.2106L558.49634,1029.2106L567.22626,1029.2106L567.22626,1029.0841L567.22626,1028.9575L558.47345,1028.9574C551.7007,1028.96,549.7106,1028.9677,549.68274,1028.9904 Z"/> </g> <g style="fill:rgb(255,255,255); fill-opacity:1.0; stroke-linejoin: miter"> <path d="M552.9033,1029.5778C552.60455,1029.669,552.4146,1029.8739,552.4146,1030.1018C552.4146,1030.3146,552.5767,1030.4158,552.7261,1030.2993C552.8147,1030.2284,552.8299,1030.1676,552.7843,1030.0613C552.759,1030.0006,552.7261,1029.9677,552.6805,1029.955L552.6147,1029.9373L552.68304,1029.8663C552.9058,1029.6334,553.36414,1029.631,553.5945,1029.8613C553.70593,1029.9727,553.73627,1030.0487,553.73376,1030.2158C553.7312,1030.507,553.6047,1030.669,552.9362,1031.2361C552.49316,1031.6134,552.4146,1031.6895,552.4146,1031.7476L552.4146,1031.8185L553.2122,1031.8185C553.6502,1031.8185,554.00977,1031.8108,554.00977,1031.7982C554.00977,1031.7881,554.03253,1031.6488,554.0604,1031.4894C554.08826,1031.3298,554.111,1031.1906,554.111,1031.178C554.111,1031.1678,554.0781,1031.1603,554.03766,1031.1603C553.9743,1031.1603,553.9616,1031.1729,553.9465,1031.2513C553.9034,1031.4868,553.8959,1031.4894,553.2755,1031.4868L552.8578,1031.4868L552.9464,1031.4109C552.9945,1031.3704,553.20715,1031.2134,553.4148,1031.064C553.9845,1030.6588,554.111,1030.5018,554.111,1030.2158C554.1085,1029.9146,553.911,1029.679,553.57935,1029.5803C553.4148,1029.5322,553.05273,1029.5297,552.9033,1029.5778 Z"/> </g> <g style="fill:rgb(255,255,255); fill-opacity:1.0; stroke-linejoin: miter"> <path d="M542.9454,1029.8158C542.9302,1029.8461,542.92004,1030.155,542.92004,1030.6387L542.92004,1031.4133L542.1807,1031.4159C541.7731,1031.4159,541.411,1031.4236,541.37555,1031.4286C541.2566,1031.4514,541.2313,1031.6008,541.34015,1031.6412C541.37555,1031.6565,541.73004,1031.6665,542.16296,1031.6665L542.92004,1031.6665L542.92004,1032.3755L542.92004,1033.0844L542.13513,1033.0844C541.7048,1033.0844,541.3427,1033.0844,541.3351,1033.0819C541.30725,1033.0793,541.2743,1033.1451,541.2743,1033.2035C541.2743,1033.2338,541.29706,1033.2719,541.3224,1033.287C541.3806,1033.3174,544.7126,1033.3224,544.75824,1033.2921C544.8038,1033.2616,544.81903,1033.1857,544.79364,1033.1326C544.7683,1033.087,544.73035,1033.0844,543.9708,1033.0844L543.1732,1033.0844L543.1732,1032.3755L543.1732,1031.6665L543.9581,1031.6665L544.743,1031.6665L544.781,1031.6058C544.83673,1031.5223,544.79614,1031.4514,544.6873,1031.4286C544.6417,1031.4185,544.2873,1031.4133,543.89734,1031.4133C543.50995,1031.4159,543.1884,1031.4109,543.18335,1031.4059C543.1783,1031.4008,543.17065,1031.0463,543.16565,1030.6183C543.1606,1029.8816,543.1581,1029.8385,543.1124,1029.8031C543.0441,1029.7524,542.9783,1029.7576,542.9454,1029.8158 Z"/> </g> <g style="fill:rgb(255,255,255); fill-opacity:1.0; stroke-linejoin: miter"> <path d="M539.3197,1029.879C539.15765,1029.8942,539.0209,1029.9119,539.01337,1029.9196C538.9804,1029.955,538.9703,1030.0436,538.9981,1030.0613C539.01587,1030.0715,539.0918,1030.0867,539.1703,1030.0942C539.2893,1030.1069,539.3121,1030.1171,539.3197,1030.1626C539.32477,1030.1904,539.2184,1030.6437,539.08673,1031.1652C538.80316,1032.2819,538.788,1032.3654,538.8209,1032.5908C538.8614,1032.8894,539.01337,1033.0895,539.27155,1033.1882C539.4868,1033.2692,539.7071,1033.2439,539.9805,1033.1047C540.31976,1032.9299,540.63885,1032.5096,540.7173,1032.13C540.75775,1031.9375,540.73755,1031.6287,540.67175,1031.4868C540.57806,1031.2766,540.3831,1031.1324,540.13245,1031.0842C539.9704,1031.0538,539.74255,1031.107,539.5906,1031.2083C539.43365,1031.3146,539.426,1031.3171,539.4387,1031.2816C539.4463,1031.2639,539.5247,1030.9475,539.6159,1030.5779C539.7653,1029.9601,539.77545,1029.9044,539.7375,1029.8739C539.71466,1029.8588,539.6767,1029.8461,539.65643,1029.8461C539.63367,1029.8486,539.48175,1029.8639,539.3197,1029.879 Z M540.2388,1031.307C540.36536,1031.4487,540.3882,1031.626,540.3248,1031.9653C540.24384,1032.3882,540.1121,1032.6945,539.9299,1032.8793C539.783,1033.0287,539.66907,1033.0844,539.5172,1033.0844C539.30194,1033.0844,539.1779,1032.9376,539.15515,1032.6565C539.14496,1032.5223,539.16016,1032.416,539.23364,1032.1046C539.2817,1031.8918,539.33997,1031.6868,539.36017,1031.6464C539.4159,1031.5374,539.6387,1031.3424,539.7881,1031.2716C539.9704,1031.183,540.1401,1031.1981,540.2388,1031.307 Z"/> </g> <g style="fill:rgb(255,255,255); fill-opacity:1.0; stroke-linejoin: miter"> <path d="M550.79425,1029.8512C550.7816,1029.8639,550.4651,1029.8917,550.32074,1029.8942C550.26,1029.8942,550.2271,1029.9119,550.1967,1029.9601C550.1385,1030.0461,550.17145,1030.074,550.35626,1030.0942C550.48035,1030.1069,550.5031,1030.1171,550.5106,1030.1626C550.51575,1030.1904,550.4018,1030.6766,550.2625,1031.2388C550.0144,1032.2261,550.00684,1032.2692,550.0144,1032.4894C550.0271,1032.7577,550.08026,1032.8997,550.2271,1033.0415C550.36884,1033.1781,550.56134,1033.2439,550.7689,1033.2288C550.9158,1033.2161,551.1386,1033.1527,551.1741,1033.1097C551.1816,1033.102,551.21454,1033.0844,551.25,1033.0667C551.3563,1033.0186,551.5766,1032.8059,551.683,1032.6489C551.84753,1032.4084,551.91583,1032.2009,551.92346,1031.9122C551.93616,1031.5172,551.82477,1031.2994,551.53864,1031.1576C551.3209,1031.0488,551.126,1031.0463,550.9031,1031.145C550.8171,1031.1855,550.7259,1031.2388,550.7031,1031.2639C550.6803,1031.2919,550.65247,1031.3121,550.64233,1031.3121C550.6322,1031.3121,550.7031,1030.9932,550.8018,1030.6031C550.8981,1030.2107,550.974,1029.8867,550.96643,1029.8816C550.94867,1029.8613,550.8069,1029.8385,550.79425,1029.8512 Z M551.41455,1031.2944C551.57404,1031.4539,551.5918,1031.7299,551.4677,1032.1857C551.34875,1032.6262,551.19684,1032.8743,550.96387,1033.0085C550.77655,1033.1173,550.6018,1033.1149,550.493,1033.006C550.38916,1032.9021,550.32837,1032.6895,550.34863,1032.5071C550.3714,1032.325,550.5132,1031.7222,550.5537,1031.6412C550.6246,1031.4994,550.8981,1031.2867,551.07275,1031.2336C551.2221,1031.1881,551.3284,1031.2083,551.41455,1031.2944 Z"/> </g> <g style="fill:rgb(255,255,255); fill-opacity:1.0; stroke-linejoin: miter"> <path d="M560.8509,1029.9879C560.82306,1030.0132,560.4686,1030.4943,560.06604,1031.0588C559.66095,1031.6235,559.30896,1032.1147,559.2787,1032.1527C559.2457,1032.1907,559.22546,1032.2565,559.22546,1032.3097L559.22546,1032.4008L559.9344,1032.4008L560.6433,1032.4008L560.6433,1032.6465C560.6433,1032.7831,560.6332,1032.9071,560.6231,1032.9249C560.59015,1032.978,560.46606,1033.0085,560.2864,1033.0085L560.11163,1033.0085L560.11163,1033.092L560.11163,1033.1781L560.8459,1033.1781C561.57764,1033.1781,561.5801,1033.1781,561.5801,1033.1249C561.5801,1033.0312,561.54724,1033.0161,561.32947,1033.0034C561.056,1032.9883,561.0484,1032.978,561.0484,1032.6489L561.0484,1032.4008L561.3143,1032.4008L561.5801,1032.4008L561.5801,1032.3121L561.5801,1032.2236L561.3143,1032.2236L561.0484,1032.2236L561.0434,1031.0894L561.03577,1029.9576L560.9699,1029.95C560.93445,1029.9448,560.8813,1029.9625,560.8509,1029.9879 Z M560.661,1032.216C560.65594,1032.2211,560.37494,1032.2211,560.0382,1032.2185L559.428,1032.2109L559.78253,1031.7173C559.98,1031.4463,560.256,1031.0615,560.39777,1030.8666L560.65594,1030.5095L560.6636,1031.3577C560.66614,1031.8236,560.66614,1032.2109,560.661,1032.216 Z"/> </g> <g style="fill:rgb(255,255,255); fill-opacity:1.0; stroke-linejoin: miter"> <path d="M563.1271,1031.0842C562.77014,1031.1576,562.403,1031.4666,562.2207,1031.8438C561.9827,1032.3375,562.01056,1032.7375,562.30426,1033.0262C562.5954,1033.3123,562.9752,1033.3047,563.3524,1033.0034C563.46387,1032.9148,563.48914,1032.9047,563.4841,1032.9603C563.47906,1032.9933,563.6234,1033.13,563.7044,1033.173C563.8082,1033.2262,564.0133,1033.2439,564.10693,1033.2086C564.2411,1033.1578,564.3779,1032.9529,564.464,1032.6692C564.50195,1032.545,564.5095,1032.4869,564.4918,1032.4641C564.43616,1032.3983,564.3779,1032.4414,564.3323,1032.5806C564.2032,1032.978,564.1297,1033.0844,563.9753,1033.0844C563.77527,1033.0844,563.78033,1032.9199,564.0057,1032.0109C564.2032,1031.2285,564.2032,1031.2007,564.0437,1031.1703C563.94745,1031.1526,563.8462,1031.2032,563.8209,1031.2893C563.80316,1031.34,563.8006,1031.34,563.7094,1031.2538C563.54486,1031.0944,563.3524,1031.0387,563.1271,1031.0842 Z M563.512,1031.2742C563.62085,1031.3475,563.72974,1031.5476,563.7145,1031.6412C563.6917,1031.7906,563.47144,1032.6211,563.436,1032.6869C563.3854,1032.7858,563.2537,1032.9021,563.07904,1033.0009C562.9119,1033.097,562.72205,1033.1149,562.6207,1033.044C562.4587,1032.9299,562.4207,1032.5831,562.5271,1032.1704C562.6157,1031.8209,562.67896,1031.6716,562.8081,1031.5095C563.0259,1031.2311,563.30945,1031.1373,563.512,1031.2742 Z"/> </g> <g style="fill:rgb(255,255,255); fill-opacity:1.0; stroke-linejoin: miter"> <path d="M566.2515,1031.0842C565.9781,1031.1273,565.67163,1031.2816,565.4717,1031.4767C565.32733,1031.6185,565.1678,1031.8337,565.1678,1031.8868C565.1678,1031.9045,565.1602,1031.9198,565.1501,1031.9198C565.1146,1031.9198,565.0463,1032.2236,565.0463,1032.3755C565.04126,1033.0009,565.5502,1033.3428,566.26666,1033.2009C566.5958,1033.135,566.93005,1032.9578,567.07684,1032.7705C567.1174,1032.7198,567.1225,1032.6945,567.09973,1032.654C567.0845,1032.6262,567.05914,1032.6034,567.04645,1032.6034C567.0313,1032.6034,566.9554,1032.6616,566.8794,1032.73C566.6161,1032.9706,566.3376,1033.0844,565.99066,1033.087C565.4868,1033.092,565.32733,1032.7427,565.52985,1032.0717C565.55524,1031.9806,565.58057,1031.8944,565.58307,1031.8817C565.58563,1031.8666,565.62103,1031.8008,565.66156,1031.735C565.6995,1031.6691,565.7324,1031.6058,565.735,1031.5957C565.7375,1031.5502,566.0742,1031.2944,566.1806,1031.2565C566.3806,1031.1855,566.6136,1031.2032,566.76544,1031.302L566.82874,1031.3424L566.75024,1031.3754C566.54517,1031.464,566.56036,1031.7931,566.7705,1031.7931C566.94775,1031.7931,567.0364,1031.6969,567.04645,1031.502C567.0541,1031.2742,566.9199,1031.145,566.60596,1031.0867C566.4439,1031.0564,566.4363,1031.0564,566.2515,1031.0842 Z"/> </g> <g style="fill:rgb(255,255,255); fill-opacity:1.0; stroke-linejoin: miter"> <path d="M534.7724,1031.8918C534.75214,1031.9045,534.742,1031.9476,534.7471,1031.9982L534.7547,1032.0844L536.32947,1032.0919C537.74994,1032.097,537.90686,1032.0945,537.9449,1032.0565C537.98535,1032.0134,537.9753,1031.9222,537.9221,1031.8894C537.8841,1031.8616,534.8129,1031.864,534.7724,1031.8918 Z"/> </g> <g style="fill:rgb(255,255,255); fill-opacity:1.0; stroke-linejoin: miter"> <path d="M555.3162,1031.9097C555.2681,1031.9552,555.2681,1031.9501,555.3011,1032.0311L555.32635,1032.097L556.8936,1032.097C558.2456,1032.097,558.4684,1032.0919,558.4988,1032.059C558.5393,1032.0186,558.5292,1031.9198,558.4811,1031.8894C558.46594,1031.8793,557.75696,1031.8691,556.9037,1031.8691C555.5289,1031.8691,555.3517,1031.8743,555.3162,1031.9097 Z"/> </g> <g style="fill:rgb(255,255,255); fill-opacity:1.0; stroke-linejoin: miter"> <path d="M521.6268,1032.9452C521.55084,1032.9679,521.43945,1033.0134,521.3812,1033.049C521.2546,1033.1224,520.9685,1033.4036,520.9685,1033.4541C520.9685,1033.4744,520.9584,1033.4895,520.94824,1033.4895C520.9052,1033.4895,520.7558,1033.8313,520.7558,1033.9326C520.7533,1034.0238,520.76086,1034.0339,520.814,1034.0339C520.847,1034.0339,520.88245,1034.0162,520.8925,1033.996C520.90265,1033.9756,520.96344,1033.8491,521.02673,1033.7174C521.166,1033.4287,521.33563,1033.2389,521.5331,1033.1478C521.73566,1033.0541,521.8698,1033.044,521.9939,1033.1149C522.23694,1033.2566,522.242,1033.5123,522.0192,1034.401C521.93823,1034.715,521.8724,1034.9808,521.8698,1034.9961C521.7838,1035.4037,521.5635,1035.7455,521.3331,1035.8341C521.20905,1035.8796,521.04193,1035.8721,520.9254,1035.8088L520.8571,1035.7759L520.91534,1035.7556C521.0141,1035.7252,521.1457,1035.5708,521.14825,1035.4822C521.1533,1035.3453,521.1432,1035.3024,521.09,1035.2467C520.96094,1035.1049,520.66974,1035.1809,520.5659,1035.3834C520.52795,1035.4543,520.5254,1035.634,520.5583,1035.7175C520.6318,1035.9023,520.8419,1036.0088,521.1331,1036.0088C521.29767,1036.0088,521.3559,1035.9987,521.4495,1035.948C521.59894,1035.8696,521.6977,1035.786,521.8066,1035.6392L521.9002,1035.5176L521.9458,1035.6188C522.0116,1035.7657,522.20154,1035.9277,522.37366,1035.9834C522.6598,1036.072,523.0143,1035.981,523.275,1035.748C523.48267,1035.5632,523.7283,1035.1353,523.7283,1034.958C523.7283,1034.9023,523.6625,1034.8745,523.60925,1034.9049C523.589,1034.915,523.5409,1035.0037,523.5029,1035.1024C523.3232,1035.5632,522.9991,1035.8544,522.6598,1035.8568C522.49774,1035.8568,522.4066,1035.8062,522.32556,1035.6696C522.2395,1035.5201,522.27496,1035.1833,522.44965,1034.5656C522.4699,1034.4948,522.51544,1034.3124,522.5509,1034.1605C522.6497,1033.7452,522.66486,1033.6971,522.7611,1033.4895C522.8522,1033.2946,522.94336,1033.1882,523.0801,1033.1149C523.17883,1033.0642,523.4396,1033.0642,523.5384,1033.1149L523.6067,1033.1527L523.5105,1033.2035C523.3864,1033.2667,523.28516,1033.4491,523.3105,1033.5604C523.3485,1033.7402,523.53076,1033.8112,523.7181,1033.7225C523.8498,1033.6566,523.908,1033.5756,523.9232,1033.4263C523.941,1033.282,523.92065,1033.2086,523.8371,1033.1097C523.75867,1033.0161,523.70294,1032.9883,523.47504,1032.9325C523.1864,1032.8616,522.81934,1033.0364,522.63446,1033.3325L522.58386,1033.4161L522.51044,1033.2921C522.33826,1032.9883,521.97876,1032.849,521.6268,1032.9452 Z"/> </g> <g style="fill:rgb(255,255,255); fill-opacity:1.0; stroke-linejoin: miter"> <path d="M526.63995,1033.4464C526.54376,1033.4794,526.5159,1033.5503,526.56396,1033.6389C526.59186,1033.692,526.5994,1033.692,528.8123,1033.692C530.50867,1033.692,531.0429,1033.6844,531.0657,1033.6617C531.10876,1033.6187,531.1037,1033.5022,531.05304,1033.4617C530.9974,1033.4136,526.7767,1033.3984,526.63995,1033.4464 Z"/> </g> <g style="fill:rgb(255,255,255); fill-opacity:1.0; stroke-linejoin: miter"> <path d="M534.15967,1034.2871L534.15967,1034.4263L550.65497,1034.4263L567.1503,1034.4263L567.1503,1034.2871L567.1503,1034.1478L550.65497,1034.1478L534.15967,1034.1478L534.15967,1034.2871 Z"/> </g> <g style="fill:rgb(255,255,255); fill-opacity:1.0; stroke-linejoin: miter"> <path d="M526.59436,1034.796C526.526,1034.8416,526.521,1034.9353,526.5842,1034.991C526.6273,1035.0315,526.8172,1035.0339,528.7996,1035.0339C530.1466,1035.0339,530.98975,1035.0239,531.0303,1035.0087C531.08093,1034.991,531.09607,1034.9656,531.09607,1034.9099C531.09607,1034.7454,531.23785,1034.7555,528.8351,1034.7555C526.8982,1034.7555,526.645,1034.7605,526.59436,1034.796 Z"/> </g> <g style="fill:rgb(255,255,255); fill-opacity:1.0; stroke-linejoin: miter"> <path d="M548.8877,1035.1758C548.7105,1035.2189,548.61176,1035.2668,548.47,1035.3809C548.3282,1035.4973,548.2446,1035.6316,548.19653,1035.8239C548.15094,1036.0011,548.17377,1036.1302,548.2649,1036.2139C548.37885,1036.3176,548.64465,1036.2317,548.67505,1036.0823C548.7029,1035.9253,548.6041,1035.7682,548.4725,1035.7682C548.4042,1035.7682,548.4016,1035.7632,548.4497,1035.672C548.50037,1035.5758,548.6345,1035.4543,548.76874,1035.386C548.9282,1035.3024,549.2371,1035.3024,549.40424,1035.3834C549.73846,1035.5454,549.89294,1035.9329,549.779,1036.3252C549.7612,1036.3885,549.74603,1036.4468,549.74603,1036.4545C549.7435,1036.4645,549.6853,1036.5608,549.6119,1036.6721C549.5156,1036.819,549.308,1037.0444,548.8219,1037.5278C548.275,1038.0723,548.1611,1038.1964,548.1611,1038.2546L548.1611,1038.3256L549.146,1038.3254C550.0625,1038.3256,550.1334,1038.3229,550.14606,1038.2799C550.1638,1038.2191,550.1815,1038.1178,550.2246,1037.8444C550.2853,1037.4343,550.2853,1037.452,550.2018,1037.452C550.1309,1037.452,550.1258,1037.4595,550.0929,1037.6039C550.03217,1037.8823,550.02966,1037.885,549.83716,1037.9052C549.5992,1037.9254,548.6674,1037.9254,548.67,1037.9C548.67,1037.8899,548.7459,1037.8191,548.8371,1037.7432C548.9282,1037.6671,549.022,1037.5862,549.04474,1037.5659C549.07764,1037.5355,549.2776,1037.3735,549.6549,1037.0723C549.85236,1036.9127,550.1334,1036.6038,550.1967,1036.4722C550.3841,1036.0847,550.2651,1035.6062,549.9157,1035.353C549.66254,1035.1707,549.227,1035.0947,548.8877,1035.1758 Z"/> </g> <g style="fill:rgb(255,255,255); fill-opacity:1.0; stroke-linejoin: miter"> <path d="M551.94116,1036.224C551.3892,1036.3353,550.893,1036.966,550.89044,1037.5608C550.88794,1037.8748,551.0044,1038.1154,551.21704,1038.2471C551.53864,1038.4495,551.88293,1038.3989,552.2096,1038.1027C552.2729,1038.0444,552.2754,1038.0444,552.3008,1038.09C552.364,1038.204,552.5134,1038.3204,552.6425,1038.3507C552.9666,1038.4292,553.17175,1038.2368,553.3085,1037.7255C553.33374,1037.6317,553.33124,1037.6089,553.30084,1037.5886C553.2249,1037.5406,553.19196,1037.5837,553.11346,1037.8292C553.0502,1038.0216,553.0122,1038.0977,552.94885,1038.1533C552.8603,1038.2318,552.74384,1038.2471,552.6932,1038.1863C552.6147,1038.09,552.63495,1037.9254,552.81726,1037.1912C552.916,1036.7987,552.997,1036.4545,552.997,1036.4266C552.997,1036.3632,552.89825,1036.2974,552.80963,1036.305C552.7666,1036.3102,552.71344,1036.3405,552.678,1036.3835L552.6172,1036.4569L552.5159,1036.3683C552.41974,1036.2797,552.2096,1036.1962,552.1007,1036.2012C552.0703,1036.2037,551.9994,1036.2139,551.94116,1036.224 Z M552.37415,1036.4493C552.42224,1036.4949,552.48047,1036.5785,552.5058,1036.6342L552.5514,1036.7355L552.4299,1037.2343C552.36145,1037.5077,552.2881,1037.7634,552.2678,1037.8065C552.1665,1038.0039,551.8399,1038.2242,551.6399,1038.2242C551.49304,1038.2242,551.41205,1038.1836,551.3437,1038.0748C551.22723,1037.885,551.3006,1037.2722,551.49304,1036.8696C551.57404,1036.695,551.77405,1036.4746,551.91583,1036.4012C552.07544,1036.3203,552.2602,1036.3405,552.37415,1036.4493 Z"/> </g> </g> </g> <defs> <linearGradient id="grad0" gradientUnits="userSpaceOnUse" x1="506.5885" y1="1166.4154" x2="573.306" y2="1043.5731"> <stop offset="0.0%" style="stop-color:rgb(74,185,65); stop-opacity:1.0"/> <stop offset="100.0%" style="stop-color:rgb(70,96,22); stop-opacity:1.0"/> </linearGradient> </defs> </svg>